# xmcd
#
# Track frame offsets:
#	150
#	47997
#	91280
#	137787
#
# Disc length: 2427 seconds
#
# Revision: 4
# Processed by: cddbd v1.5.2PL0 Copyright (c) Steve Scherf et al.
# Submitted via: EZCDAudioConverter 8.0.2.1
#
DISCID=32097904
DTITLE=Hoàng Lan, Thế Sơn, Mỹ Huyền - Liên Khúc Cha Cha Cha. Tình Là Sợ Tơ
DYEAR=1996
DGENRE=Miscellaneous
TTITLE0=Part 1. Liên Khúc Cha Cha Cha. Tình Là Sợ Tơ
TTITLE1=Part 2. Liên Khúc Cha Cha Cha. Tình Là Sợ Tơ
TTITLE2=Part 3. Liên Khúc Cha Cha Cha. Tình Là Sợ Tơ
TTITLE3=Part 4. Liên Khúc Cha Cha Cha. Tình Là Sợ Tơ
EXTD=
EXTT0=
EXTT1=
EXTT2=
EXTT3=
PLAYORDER=
